<mxfile host="app.diagrams.net" modified="2024-04-05T14:18:37.568Z" agent="Mozilla/5.0 (Macintosh; Intel Mac OS X 10_15_7) AppleWebKit/537.36 (KHTML, like Gecko) Chrome/123.0.0.0 Safari/537.36" etag="ZxQL-tGg3p2mPeehLED_" version="24.0.4" type="device">
  <diagram name="Trang-1" id="g2YZmZBg1_Mo8MAKL9qQ">
    <mxGraphModel dx="954" dy="640" grid="1" gridSize="10" guides="1" tooltips="1" connect="1" arrows="1" fold="1" page="1" pageScale="1" pageWidth="827" pageHeight="1169" math="0" shadow="0">
      <root>
        <mxCell id="0" />
        <mxCell id="1" parent="0" />
        <mxCell id="0lSW8o5bekR_xyhRqB-v-2" value="" style="image;aspect=fixed;html=1;points=[];align=center;fontSize=12;image=img/lib/azure2/databases/Azure_Database_PostgreSQL_Server.svg;" vertex="1" parent="1">
          <mxGeometry x="30" y="230" width="82.5" height="110" as="geometry" />
        </mxCell>
        <mxCell id="0lSW8o5bekR_xyhRqB-v-4" value="" style="sketch=0;pointerEvents=1;shadow=0;dashed=0;html=1;strokeColor=none;fillColor=#DF8C42;labelPosition=center;verticalLabelPosition=bottom;verticalAlign=top;align=center;outlineConnect=0;shape=mxgraph.veeam2.restful_api;" vertex="1" parent="1">
          <mxGeometry x="212.5" y="230" width="110" height="110" as="geometry" />
        </mxCell>
        <mxCell id="0lSW8o5bekR_xyhRqB-v-8" style="edgeStyle=orthogonalEdgeStyle;rounded=0;orthogonalLoop=1;jettySize=auto;html=1;dashed=1;" edge="1" parent="1" source="0lSW8o5bekR_xyhRqB-v-5" target="0lSW8o5bekR_xyhRqB-v-4">
          <mxGeometry relative="1" as="geometry" />
        </mxCell>
        <mxCell id="0lSW8o5bekR_xyhRqB-v-5" value="" style="outlineConnect=0;dashed=0;verticalLabelPosition=bottom;verticalAlign=top;align=center;html=1;shape=mxgraph.aws3.android;fillColor=#8CC64F;gradientColor=none;" vertex="1" parent="1">
          <mxGeometry x="230.75" y="60" width="73.5" height="84" as="geometry" />
        </mxCell>
        <mxCell id="0lSW8o5bekR_xyhRqB-v-7" style="edgeStyle=orthogonalEdgeStyle;rounded=0;orthogonalLoop=1;jettySize=auto;html=1;entryX=1.006;entryY=0.495;entryDx=0;entryDy=0;entryPerimeter=0;" edge="1" parent="1" source="0lSW8o5bekR_xyhRqB-v-4" target="0lSW8o5bekR_xyhRqB-v-2">
          <mxGeometry relative="1" as="geometry" />
        </mxCell>
        <mxCell id="0lSW8o5bekR_xyhRqB-v-24" style="edgeStyle=orthogonalEdgeStyle;rounded=0;orthogonalLoop=1;jettySize=auto;html=1;" edge="1" parent="1" source="0lSW8o5bekR_xyhRqB-v-10" target="0lSW8o5bekR_xyhRqB-v-4">
          <mxGeometry relative="1" as="geometry" />
        </mxCell>
        <mxCell id="0lSW8o5bekR_xyhRqB-v-10" value="" style="sketch=0;aspect=fixed;pointerEvents=1;shadow=0;dashed=0;html=1;strokeColor=none;labelPosition=center;verticalLabelPosition=bottom;verticalAlign=top;align=center;fillColor=#00188D;shape=mxgraph.mscae.enterprise.android_phone" vertex="1" parent="1">
          <mxGeometry x="535" y="90" width="84" height="140" as="geometry" />
        </mxCell>
        <mxCell id="0lSW8o5bekR_xyhRqB-v-11" value="" style="shape=image;html=1;verticalAlign=top;verticalLabelPosition=bottom;labelBackgroundColor=#ffffff;imageAspect=0;aspect=fixed;image=https://cdn1.iconfinder.com/data/icons/unicons-line-vol-5/24/react-128.png" vertex="1" parent="1">
          <mxGeometry x="712.5" y="304.5" width="128" height="128" as="geometry" />
        </mxCell>
        <mxCell id="0lSW8o5bekR_xyhRqB-v-25" style="edgeStyle=orthogonalEdgeStyle;rounded=0;orthogonalLoop=1;jettySize=auto;html=1;exitX=0;exitY=0.5;exitDx=0;exitDy=0;exitPerimeter=0;" edge="1" parent="1" source="0lSW8o5bekR_xyhRqB-v-16">
          <mxGeometry relative="1" as="geometry">
            <mxPoint x="497.5" y="340" as="sourcePoint" />
            <mxPoint x="320" y="310" as="targetPoint" />
            <Array as="points">
              <mxPoint x="500" y="370" />
              <mxPoint x="430" y="370" />
              <mxPoint x="430" y="310" />
            </Array>
          </mxGeometry>
        </mxCell>
        <mxCell id="0lSW8o5bekR_xyhRqB-v-16" value="" style="sketch=0;pointerEvents=1;shadow=0;dashed=0;html=1;strokeColor=none;labelPosition=center;verticalLabelPosition=bottom;verticalAlign=top;align=center;fillColor=#505050;shape=mxgraph.mscae.intune.dashboard" vertex="1" parent="1">
          <mxGeometry x="500" y="327" width="130" height="83" as="geometry" />
        </mxCell>
        <mxCell id="0lSW8o5bekR_xyhRqB-v-17" value="Admin Dashboard" style="text;html=1;align=center;verticalAlign=middle;whiteSpace=wrap;rounded=0;" vertex="1" parent="1">
          <mxGeometry x="542.5" y="420" width="60" height="30" as="geometry" />
        </mxCell>
        <mxCell id="0lSW8o5bekR_xyhRqB-v-19" style="edgeStyle=orthogonalEdgeStyle;rounded=0;orthogonalLoop=1;jettySize=auto;html=1;entryX=1;entryY=0.5;entryDx=0;entryDy=0;entryPerimeter=0;dashed=1;" edge="1" parent="1" source="0lSW8o5bekR_xyhRqB-v-11" target="0lSW8o5bekR_xyhRqB-v-16">
          <mxGeometry relative="1" as="geometry" />
        </mxCell>
        <mxCell id="0lSW8o5bekR_xyhRqB-v-20" value="RESTFul API server" style="text;html=1;align=center;verticalAlign=middle;whiteSpace=wrap;rounded=0;" vertex="1" parent="1">
          <mxGeometry x="206" y="340" width="123" height="30" as="geometry" />
        </mxCell>
        <mxCell id="0lSW8o5bekR_xyhRqB-v-21" value="Database PostgreSQL" style="text;html=1;align=center;verticalAlign=middle;whiteSpace=wrap;rounded=0;" vertex="1" parent="1">
          <mxGeometry x="9.75" y="340" width="123" height="30" as="geometry" />
        </mxCell>
        <mxCell id="0lSW8o5bekR_xyhRqB-v-22" value="NodeJS" style="text;html=1;align=center;verticalAlign=middle;whiteSpace=wrap;rounded=0;" vertex="1" parent="1">
          <mxGeometry x="206" y="30" width="123" height="30" as="geometry" />
        </mxCell>
        <mxCell id="0lSW8o5bekR_xyhRqB-v-23" value="ReactJS" style="text;html=1;align=center;verticalAlign=middle;whiteSpace=wrap;rounded=0;" vertex="1" parent="1">
          <mxGeometry x="717.5" y="420" width="123" height="30" as="geometry" />
        </mxCell>
        <mxCell id="0lSW8o5bekR_xyhRqB-v-26" value="Mobile app for user" style="text;html=1;align=center;verticalAlign=middle;whiteSpace=wrap;rounded=0;" vertex="1" parent="1">
          <mxGeometry x="535" y="234.5" width="75" height="30" as="geometry" />
        </mxCell>
        <mxCell id="0lSW8o5bekR_xyhRqB-v-34" value="HTTPS" style="text;html=1;align=center;verticalAlign=middle;whiteSpace=wrap;rounded=0;" vertex="1" parent="1">
          <mxGeometry x="370" y="260" width="60" height="30" as="geometry" />
        </mxCell>
        <mxCell id="0lSW8o5bekR_xyhRqB-v-35" value="HTTPS" style="text;html=1;align=center;verticalAlign=middle;whiteSpace=wrap;rounded=0;" vertex="1" parent="1">
          <mxGeometry x="370" y="310" width="60" height="30" as="geometry" />
        </mxCell>
        <mxCell id="0lSW8o5bekR_xyhRqB-v-36" style="edgeStyle=orthogonalEdgeStyle;rounded=0;orthogonalLoop=1;jettySize=auto;html=1;entryX=0.024;entryY=0.782;entryDx=0;entryDy=0;entryPerimeter=0;dashed=1;" edge="1" parent="1" target="0lSW8o5bekR_xyhRqB-v-10">
          <mxGeometry relative="1" as="geometry">
            <mxPoint x="322.5" y="290.9" as="sourcePoint" />
            <mxPoint x="535.8399999999999" y="234.50000000000003" as="targetPoint" />
            <Array as="points">
              <mxPoint x="500" y="291" />
              <mxPoint x="500" y="200" />
            </Array>
          </mxGeometry>
        </mxCell>
        <mxCell id="0lSW8o5bekR_xyhRqB-v-37" style="edgeStyle=orthogonalEdgeStyle;rounded=0;orthogonalLoop=1;jettySize=auto;html=1;dashed=1;" edge="1" parent="1" source="0lSW8o5bekR_xyhRqB-v-4">
          <mxGeometry relative="1" as="geometry">
            <mxPoint x="332.5" y="300.9" as="sourcePoint" />
            <mxPoint x="580" y="328" as="targetPoint" />
            <Array as="points">
              <mxPoint x="510" y="301" />
              <mxPoint x="510" y="300" />
              <mxPoint x="580" y="300" />
              <mxPoint x="580" y="328" />
            </Array>
          </mxGeometry>
        </mxCell>
        <mxCell id="0lSW8o5bekR_xyhRqB-v-38" value="JSON" style="text;html=1;align=center;verticalAlign=middle;whiteSpace=wrap;rounded=0;" vertex="1" parent="1">
          <mxGeometry x="440" y="260" width="60" height="30" as="geometry" />
        </mxCell>
        <mxCell id="0lSW8o5bekR_xyhRqB-v-40" value="JSON" style="text;html=1;align=center;verticalAlign=middle;whiteSpace=wrap;rounded=0;" vertex="1" parent="1">
          <mxGeometry x="510" y="274.5" width="60" height="30" as="geometry" />
        </mxCell>
        <mxCell id="0lSW8o5bekR_xyhRqB-v-41" value="Query" style="text;html=1;align=center;verticalAlign=middle;whiteSpace=wrap;rounded=0;" vertex="1" parent="1">
          <mxGeometry x="132.75" y="260" width="60" height="30" as="geometry" />
        </mxCell>
        <mxCell id="0lSW8o5bekR_xyhRqB-v-43" value="Chú thích:" style="text;html=1;align=center;verticalAlign=middle;whiteSpace=wrap;rounded=0;" vertex="1" parent="1">
          <mxGeometry x="9.75" y="420" width="60" height="30" as="geometry" />
        </mxCell>
        <mxCell id="0lSW8o5bekR_xyhRqB-v-45" value=": Response" style="text;html=1;align=center;verticalAlign=middle;whiteSpace=wrap;rounded=0;" vertex="1" parent="1">
          <mxGeometry x="69.75" y="450" width="80" height="30" as="geometry" />
        </mxCell>
        <mxCell id="0lSW8o5bekR_xyhRqB-v-48" value="" style="endArrow=classic;html=1;rounded=0;" edge="1" parent="1">
          <mxGeometry width="50" height="50" relative="1" as="geometry">
            <mxPoint x="9.75" y="494.5" as="sourcePoint" />
            <mxPoint x="69.75" y="494.5" as="targetPoint" />
          </mxGeometry>
        </mxCell>
        <mxCell id="0lSW8o5bekR_xyhRqB-v-49" value="" style="endArrow=classic;html=1;rounded=0;dashed=1;" edge="1" parent="1">
          <mxGeometry width="50" height="50" relative="1" as="geometry">
            <mxPoint x="9.75" y="464.5" as="sourcePoint" />
            <mxPoint x="69.75" y="464.5" as="targetPoint" />
          </mxGeometry>
        </mxCell>
        <mxCell id="0lSW8o5bekR_xyhRqB-v-50" value=": Request" style="text;html=1;align=center;verticalAlign=middle;whiteSpace=wrap;rounded=0;" vertex="1" parent="1">
          <mxGeometry x="69.75" y="480" width="80.25" height="30" as="geometry" />
        </mxCell>
      </root>
    </mxGraphModel>
  </diagram>
</mxfile>
